<svg xmlns="http://www.w3.org/2000/svg" viewBox="0 0 1440 900" preserveAspectRatio="xMidYMid slice"><rect width="1440" height="900" fill="#0f3d33"/><defs><radialGradient id="glow" cx="50%%" cy="26%%" r="60%%"><stop offset="0%%" stop-color="#3a9c84" stop-opacity=".28"/><stop offset="100%%" stop-color="#0f3d33" stop-opacity="0"/></radialGradient></defs><polygon points="0,0 138.9,0 152,111.3" fill="#1a4d43"/><polygon points="0,0 152,111.3 0,108.4" fill="#1a4d43"/><polygon points="138.9,0 278.1,0 270.9,143.2" fill="#226356"/><polygon points="138.9,0 270.9,143.2 152,111.3" fill="#226356"/><polygon points="278.1,0 498.1,0 519.2,116.1" fill="#185046"/><polygon points="278.1,0 519.2,116.1 270.9,143.2" fill="#1d5a4e"/><polygon points="498.1,0 588.7,0 606.8,161.5" fill="#185046"/><polygon points="498.1,0 606.8,161.5 519.2,116.1" fill="#13443a"/><polygon points="588.7,0 804.3,0 853.7,156.9" fill="#13443a"/><polygon points="588.7,0 853.7,156.9 606.8,161.5" fill="#13443a"/><polygon points="804.3,0 943.9,0 947.6,192.9" fill="#185046"/><polygon points="804.3,0 947.6,192.9 853.7,156.9" fill="#13443a"/><polygon points="943.9,0 1067,0 1065.6,182.3" fill="#185046"/><polygon points="943.9,0 1065.6,182.3 947.6,192.9" fill="#185046"/><polygon points="1067,0 1280.9,0 1254.8,118" fill="#226356"/><polygon points="1067,0 1254.8,118 1065.6,182.3" fill="#1d5a4e"/><polygon points="1280.9,0 1440,0 1440,115.6" fill="#1a4d43"/><polygon points="1280.9,0 1440,115.6 1254.8,118" fill="#1a4d43"/><polygon points="0,108.4 152,111.3 197.9,271.3" fill="#1a4d43"/><polygon points="0,108.4 197.9,271.3 0,282.8" fill="#1a4d43"/><polygon points="152,111.3 270.9,143.2 329.8,312.5" fill="#1d5a4e"/><polygon points="152,111.3 329.8,312.5 197.9,271.3" fill="#226356"/><polygon points="270.9,143.2 519.2,116.1 464.7,304.3" fill="#185046"/><polygon points="270.9,143.2 464.7,304.3 329.8,312.5" fill="#1d5a4e"/><polygon points="519.2,116.1 606.8,161.5 587.5,260.4" fill="#13443a"/><polygon points="519.2,116.1 587.5,260.4 464.7,304.3" fill="#13443a"/><polygon points="606.8,161.5 853.7,156.9 764.7,316.2" fill="#0f3d33"/><polygon points="606.8,161.5 764.7,316.2 587.5,260.4" fill="#0f3d33"/><polygon points="853.7,156.9 947.6,192.9 951.3,283.3" fill="#13443a"/><polygon points="853.7,156.9 951.3,283.3 764.7,316.2" fill="#13443a"/><polygon points="947.6,192.9 1065.6,182.3 1130.3,295.8" fill="#185046"/><polygon points="947.6,192.9 1130.3,295.8 951.3,283.3" fill="#185046"/><polygon points="1065.6,182.3 1254.8,118 1256,326.5" fill="#1d5a4e"/><polygon points="1065.6,182.3 1256,326.5 1130.3,295.8" fill="#1d5a4e"/><polygon points="1254.8,118 1440,115.6 1440,317.9" fill="#1a4d43"/><polygon points="1254.8,118 1440,317.9 1256,326.5" fill="#226356"/><polygon points="0,282.8 197.9,271.3 168.9,452.3" fill="#226356"/><polygon points="0,282.8 168.9,452.3 0,427" fill="#1a4d43"/><polygon points="197.9,271.3 329.8,312.5 365,470.7" fill="#1d5a4e"/><polygon points="197.9,271.3 365,470.7 168.9,452.3" fill="#226356"/><polygon points="329.8,312.5 464.7,304.3 454.6,493.2" fill="#185046"/><polygon points="329.8,312.5 454.6,493.2 365,470.7" fill="#1d5a4e"/><polygon points="464.7,304.3 587.5,260.4 594.2,442.6" fill="#13443a"/><polygon points="464.7,304.3 594.2,442.6 454.6,493.2" fill="#185046"/><polygon points="587.5,260.4 764.7,316.2 830.9,418.7" fill="#0f3d33"/><polygon points="587.5,260.4 830.9,418.7 594.2,442.6" fill="#13443a"/><polygon points="764.7,316.2 951.3,283.3 958.7,408.5" fill="#13443a"/><polygon points="764.7,316.2 958.7,408.5 830.9,418.7" fill="#13443a"/><polygon points="951.3,283.3 1130.3,295.8 1140.2,473.8" fill="#1d5a4e"/><polygon points="951.3,283.3 1140.2,473.8 958.7,408.5" fill="#185046"/><polygon points="1130.3,295.8 1256,326.5 1288.8,483.8" fill="#226356"/><polygon points="1130.3,295.8 1288.8,483.8 1140.2,473.8" fill="#226356"/><polygon points="1256,326.5 1440,317.9 1440,433.2" fill="#1a4d43"/><polygon points="1256,326.5 1440,433.2 1288.8,483.8" fill="#1a4d43"/><polygon points="0,427 168.9,452.3 171.3,607.2" fill="#1a4d43"/><polygon points="0,427 171.3,607.2 0,617.6" fill="#1a4d43"/><polygon points="168.9,452.3 365,470.7 314.7,630.6" fill="#226356"/><polygon points="168.9,452.3 314.7,630.6 171.3,607.2" fill="#226356"/><polygon points="365,470.7 454.6,493.2 533.4,597.7" fill="#1d5a4e"/><polygon points="365,470.7 533.4,597.7 314.7,630.6" fill="#1d5a4e"/><polygon points="454.6,493.2 594.2,442.6 659.7,560.5" fill="#185046"/><polygon points="454.6,493.2 659.7,560.5 533.4,597.7" fill="#185046"/><polygon points="594.2,442.6 830.9,418.7 824.2,613.2" fill="#13443a"/><polygon points="594.2,442.6 824.2,613.2 659.7,560.5" fill="#185046"/><polygon points="830.9,418.7 958.7,408.5 1019.2,629" fill="#185046"/><polygon points="830.9,418.7 1019.2,629 824.2,613.2" fill="#185046"/><polygon points="958.7,408.5 1140.2,473.8 1094.2,589.7" fill="#1d5a4e"/><polygon points="958.7,408.5 1094.2,589.7 1019.2,629" fill="#1d5a4e"/><polygon points="1140.2,473.8 1288.8,483.8 1300.2,557" fill="#226356"/><polygon points="1140.2,473.8 1300.2,557 1094.2,589.7" fill="#226356"/><polygon points="1288.8,483.8 1440,433.2 1440,596.6" fill="#1a4d43"/><polygon points="1288.8,483.8 1440,596.6 1300.2,557" fill="#1a4d43"/><polygon points="0,617.6 171.3,607.2 114.1,710.3" fill="#0d352c"/><polygon points="0,617.6 114.1,710.3 0,720.1" fill="#0d352c"/><polygon points="171.3,607.2 314.7,630.6 352.2,716.6" fill="#226356"/><polygon points="171.3,607.2 352.2,716.6 114.1,710.3" fill="#1a4d43"/><polygon points="314.7,630.6 533.4,597.7 449.7,740.2" fill="#226356"/><polygon points="314.7,630.6 449.7,740.2 352.2,716.6" fill="#226356"/><polygon points="533.4,597.7 659.7,560.5 684.6,712.3" fill="#1d5a4e"/><polygon points="533.4,597.7 684.6,712.3 449.7,740.2" fill="#1d5a4e"/><polygon points="659.7,560.5 824.2,613.2 793.9,754.4" fill="#1d5a4e"/><polygon points="659.7,560.5 793.9,754.4 684.6,712.3" fill="#1d5a4e"/><polygon points="824.2,613.2 1019.2,629 1006,778.7" fill="#1d5a4e"/><polygon points="824.2,613.2 1006,778.7 793.9,754.4" fill="#226356"/><polygon points="1019.2,629 1094.2,589.7 1163.7,730.1" fill="#226356"/><polygon points="1019.2,629 1163.7,730.1 1006,778.7" fill="#226356"/><polygon points="1094.2,589.7 1300.2,557 1269.8,737.3" fill="#1a4d43"/><polygon points="1094.2,589.7 1269.8,737.3 1163.7,730.1" fill="#1a4d43"/><polygon points="1300.2,557 1440,596.6 1440,784.6" fill="#0d352c"/><polygon points="1300.2,557 1440,784.6 1269.8,737.3" fill="#0d352c"/><polygon points="0,720.1 114.1,710.3 214.9,900" fill="#0d352c"/><polygon points="0,720.1 214.9,900 0,900" fill="#27705f"/><polygon points="114.1,710.3 352.2,716.6 278.1,900" fill="#1a4d43"/><polygon points="114.1,710.3 278.1,900 214.9,900" fill="#0d352c"/><polygon points="352.2,716.6 449.7,740.2 441.1,900" fill="#1a4d43"/><polygon points="352.2,716.6 441.1,900 278.1,900" fill="#1a4d43"/><polygon points="449.7,740.2 684.6,712.3 607.8,900" fill="#226356"/><polygon points="449.7,740.2 607.8,900 441.1,900" fill="#1a4d43"/><polygon points="684.6,712.3 793.9,754.4 768,900" fill="#226356"/><polygon points="684.6,712.3 768,900 607.8,900" fill="#226356"/><polygon points="793.9,754.4 1006,778.7 958.2,900" fill="#226356"/><polygon points="793.9,754.4 958.2,900 768,900" fill="#1a4d43"/><polygon points="1006,778.7 1163.7,730.1 1130.7,900" fill="#1a4d43"/><polygon points="1006,778.7 1130.7,900 958.2,900" fill="#1a4d43"/><polygon points="1163.7,730.1 1269.8,737.3 1251.5,900" fill="#0d352c"/><polygon points="1163.7,730.1 1251.5,900 1130.7,900" fill="#0d352c"/><polygon points="1269.8,737.3 1440,784.6 1440,900" fill="#27705f"/><polygon points="1269.8,737.3 1440,900 1251.5,900" fill="#0d352c"/><rect width="1440" height="900" fill="url(#glow)"/></svg>